:version 1.10
:name ASF
:units
  mass 1
  length 1
  angle deg
:documentation
  ASF file generated by Kaydara
:root
  axis xyz
  order  tx ty tz rx ry rz
  position 0 0 0
  orientation 0 0 0
:bonedata
  begin
    id 1
    name RightUpLegDummy
    direction -0.65628 -0.754516 0.00165102
    length 4.76918
    axis 0 0 0 xyz
  end
  begin
    id 2
    name RightUpLeg
    direction -0.145584 -0.923362 0.355256
    length 17.9961
    axis -24.7611 -13.1006 1.78531 xyz
    dof rx ry rz
  end
  begin
    id 3
    name RightLeg
    direction 0.263379 0.172355 -0.949171
    length 13.3386
    axis 89.6202 -21.1929 12.3855 xyz
    dof rx ry rz
  end
  begin
    id 4
    name RightFoot
    direction 0.224283 -0.968777 -0.105675
    length 5.86697
    axis 56.995 -39.6905 17.3365 xyz
    dof rx ry rz
  end
  begin
    id 5
    name RightToes
    direction -0.0806345 -0.9037 0.420506
    length 4.75197
    axis 146.825 -39.7828 17.6019 xyz
    dof rx ry rz
  end
  begin
    id 6
    name SpineDummy
    direction -3.39852e-014 1 9.33296e-014
    length 8.13779
    axis 0 0 0 xyz
  end
  begin
    id 7
    name Spine
    direction -0.156609 0.733703 0.661176
    length 7.14978
    axis 41.2365 5.68757 17.0844 xyz
    dof rx ry rz
  end
  begin
    id 8
    name Spine1
    direction 0 0 0
    length 0
    axis 42.8809 47.8308 -3.36039 xyz
    dof rx ry rz
  end
  begin
    id 9
    name HEadDummy
    direction 0.546431 0.701947 0.456819
    length 3.55512
    axis 42.8809 47.8308 -3.36039 xyz
  end
  begin
    id 10
    name HEad
    direction 0.23444 0.828559 0.508457
    length 7.35827
    axis 51.1864 49.2662 27.4903 xyz
    dof rx ry rz
  end
  begin
    id 11
    name LeftShoulder1Dummy
    direction 0.431183 0.475873 -0.766568
    length 2.49352
    axis 42.8809 47.8308 -3.36039 xyz
  end
  begin
    id 12
    name LeftShoulder1
    direction 0.268187 -0.383402 -0.883786
    length 4.48604
    axis -119.517 0.106469 35.1736 xyz
    dof rx ry rz
  end
  begin
    id 13
    name LeftArm
    direction 0.380567 -0.703221 -0.600541
    length 10.1142
    axis -5.41825 36.2925 7.8293 xyz
    dof rx ry rz
  end
  begin
    id 14
    name LeftForeArm
    direction 0.541071 -0.732356 -0.413396
    length 9.39839
    axis 4.65387 33.7604 7.81644 xyz
    dof rx ry rz
  end
  begin
    id 15
    name LeftHand
    direction 0.847511 -0.389379 -0.360707
    length 3.66142
    axis 7.65593 21.1436 -24.6758 xyz
    dof rx ry rz
  end
  begin
    id 16
    name RightShoulderDummy
    direction -0.692546 0.541855 0.476208
    length 2.49352
    axis 42.8809 47.8308 -3.36039 xyz
  end
  begin
    id 17
    name RightShoulder
    direction -0.870808 -0.316653 0.376065
    length 4.48602
    axis 141.571 51.133 -100.254 xyz
    dof rx ry rz
  end
  begin
    id 18
    name RightArm
    direction 0.366897 -0.87275 0.322015
    length 10.1142
    axis 92.3258 71.2036 138.917 xyz
    dof rx ry rz
  end
  begin
    id 19
    name RightForeArm
    direction 0.702487 -0.694568 0.155197
    length 9.39835
    axis 153.863 41.5092 -176.604 xyz
    dof rx ry rz
  end
  begin
    id 20
    name RightHand
    direction 0.79502 -0.601276 0.0800636
    length 3.66142
    axis 154.247 4.59222 142.9 xyz
    dof rx ry rz
  end
  begin
    id 21
    name LeftUpLegDummy
    direction 0.65628 -0.754516 0.00165102
    length 4.76919
    axis 0 0 0 xyz
  end
  begin
    id 22
    name LeftUpLeg
    direction -0.1277 -0.689368 0.713067
    length 17.9961
    axis -48.3385 -17.8675 0.791927 xyz
    dof rx ry rz
  end
  begin
    id 23
    name LeftLeg
    direction 0.109849 -0.991246 -0.0732378
    length 13.3386
    axis -2.05791 -7.30784 1.72042 xyz
    dof rx ry rz
  end
  begin
    id 24
    name LeftFoot
    direction 0.0448355 -0.272614 0.961078
    length 5.86697
    axis -18.7733 -7.89606 10.2113 xyz
    dof rx ry rz
  end
  begin
    id 25
    name LeftToes
    direction -0.18506 0.293668 0.937823
    length 4.75197
    axis 71.2267 -7.89606 10.2113 xyz
    dof rx ry rz
  end
:hierarchy
  begin
    root RightUpLegDummy SpineDummy LeftUpLegDummy
    RightUpLegDummy RightUpLeg
    RightUpLeg RightLeg
    RightLeg RightFoot
    RightFoot RightToes
    SpineDummy Spine
    Spine Spine1
    Spine1 HEadDummy LeftShoulder1Dummy RightShoulderDummy
    HEadDummy HEad
    LeftShoulder1Dummy LeftShoulder1
    LeftShoulder1 LeftArm
    LeftArm LeftForeArm
    LeftForeArm LeftHand
    RightShoulderDummy RightShoulder
    RightShoulder RightArm
    RightArm RightForeArm
    RightForeArm RightHand
    LeftUpLegDummy LeftUpLeg
    LeftUpLeg LeftLeg
    LeftLeg LeftFoot
    LeftFoot LeftToes
  end

:SAMPLES-PER-SECOND 30
:FULLY-SPECIFIED
:DEGREES
282
root  -26.0705 37.1753 22.1051 -166.328 61.035 -169.193
RightUpLeg  35.5132 11.4654 19.1769
RightLeg  -91.8243 -11.7778 -1.96166
RightFoot  3.80615 7.77534 -18.7578
RightToes  -1.27222e-014 -6.36111e-015 6.36111e-015
Spine  -31.6019 -9.81529 -0.0835013
Spine1  -7.73267 -14.4011 43.6505
HEad  5.82221 10.6536 -20.1864
LeftShoulder1  6.36111e-015 -1.33558e-015 6.49777e-015
LeftArm  11.5024 -25.1005 34.2195
LeftForeArm  6.55256 -12.6729 -6.75063
LeftHand  0.382328 4.19397 -10.21
RightShoulder  -4.77083e-015 -6.36111e-015 -3.18055e-015
RightArm  46.6392 29.1922 -47.9411
RightForeArm  0.826562 -6.97187 7.94048
RightHand  -0.0432319 2.29009 -3.19976
LeftUpLeg  2.97868 45.8814 19.4359
LeftLeg  -18.2177 10.5342 -4.59548
LeftFoot  2.73711 0.591366 -1.81375
LeftToes  1.27222e-014 -5.20697e-012 1.80337e-011
283
root  -25.2103 36.4289 22.3181 -165.956 55.6254 -170.368
RightUpLeg  35.6164 7.38784 21.316
RightLeg  -94.4059 -12.0492 4.05739
RightFoot  -0.580093 9.21807 -21.6368
RightToes  -1.27222e-014 -6.36111e-015 6.36111e-015
Spine  -32.5301 -7.05508 0.516183
Spine1  -5.1813 -12.6657 40.6169
HEad  1.84279 9.89525 -22.2498
LeftShoulder1  6.36111e-015 -1.33558e-015 6.49777e-015
LeftArm  14.1784 -20.9031 34.8963
LeftForeArm  9.18135 -14.4717 -6.72507
LeftHand  1.54569 7.11595 -8.06886
RightShoulder  -4.77083e-015 -6.36111e-015 -3.18055e-015
RightArm  50.5115 26.667 -50.9291
RightForeArm  5.16096 -1.97476 9.08668
RightHand  -0.349575 2.26768 -0.358354
LeftUpLeg  -0.551877 47.5952 18.2292
LeftLeg  -11.9883 14.9538 -2.83196
LeftFoot  1.18232 0.281202 -0.872017
LeftToes  1.27222e-014 -5.20697e-012 1.80337e-011
284
root  -24.1458 36.3525 22.3298 -167.96 50.2711 -175.703
RightUpLeg  32.2543 3.47957 18.5669
RightLeg  -93.1666 -12.5093 6.57353
RightFoot  0.749855 8.61068 -20.2935
RightToes  -1.27222e-014 -6.36111e-015 6.36111e-015
Spine  -33.0577 -7.07708 -1.30726
Spine1  -2.86614 -11.4792 36.4524
HEad  0.268858 9.82511 -24.1713
LeftShoulder1  6.36111e-015 -1.33558e-015 6.49777e-015
LeftArm  19.0298 -14.127 31.6402
LeftForeArm  9.58114 -18.3365 -6.22552
LeftHand  2.59545 9.58799 -6.42215
RightShoulder  -4.77083e-015 -6.36111e-015 -3.18055e-015
RightArm  63.443 16.7474 -46.9327
RightForeArm  0.101887 -1.79255 1.2632
RightHand  -0.338467 2.0566 -0.12031
LeftUpLeg  -0.771289 51.0037 15.7423
LeftLeg  -10.0084 12.8544 -1.99894
LeftFoot  0.269587 0.594252 -1.93713
LeftToes  1.27222e-014 -5.20697e-012 1.80337e-011
285
root  -23.008 36.7629 22.2056 -170.899 43.9565 177.216
RightUpLeg  26.0342 -0.909747 12.8112
RightLeg  -85.9776 -13.6199 4.65703
RightFoot  8.46507 6.64587 -17.1052
RightToes  -1.27222e-014 -6.36111e-015 6.36111e-015
Spine  -31.9901 -9.37954 -4.59315
Spine1  -0.484212 -10.8365 31.8188
HEad  0.532864 8.69041 -25.4275
LeftShoulder1  6.36111e-015 -1.33558e-015 6.49777e-015
LeftArm  25.0318 -7.26975 24.655
LeftForeArm  6.93091 -18.7225 -5.23229
LeftHand  1.75978 7.60161 -7.65345
RightShoulder  -4.77083e-015 -6.36111e-015 -3.18055e-015
RightArm  72.1038 1.0012 -43.1648
RightForeArm  -9.48078 -9.73852 -6.09522
RightHand  0.442423 0.415248 -4.03572
LeftUpLeg  0.542519 54.2285 10.8093
LeftLeg  -12.6449 5.86028 -2.38424
LeftFoot  1.1552 0.979012 -3.14977
LeftToes  1.27222e-014 -5.20697e-012 1.80337e-011
286
root  -21.8546 37.0524 22.0578 -173.478 36.6104 171.228
RightUpLeg  17.3071 -4.35485 8.62075
RightLeg  -72.4688 -15.7656 3.9377
RightFoot  21.1035 5.17799 -16.5522
RightToes  -1.27222e-014 -6.36111e-015 6.36111e-015
Spine  -29.1764 -12.1211 -7.83827
Spine1  3.32702 -10.292 27.1307
HEad  0.463903 5.31993 -25.8682
LeftShoulder1  6.36111e-015 -1.33558e-015 6.49777e-015
LeftArm  29.0922 -1.89097 15.4369
LeftForeArm  4.87925 -15.3847 -5.5037
LeftHand  -0.0355391 2.82294 -10.3923
RightShoulder  -4.77083e-015 -6.36111e-015 -3.18055e-015
RightArm  71.8843 -13.4653 -41.7768
RightForeArm  -17.3417 -16.1965 -6.10123
RightHand  1.00673 0.470834 -8.55125
LeftUpLeg  0.996777 55.143 3.89818
LeftLeg  -16.0088 0.101529 -2.34481
LeftFoot  3.62795 0.55148 -1.65555
LeftToes  1.27222e-014 -5.20697e-012 1.80337e-011
287
root  -20.7265 36.8025 21.9067 -175.406 29.3252 167.202
RightUpLeg  8.0668 -6.32925 6.10482
RightLeg  -56.0157 -18.7052 3.56456
RightFoot  31.2773 4.53749 -17.1165
RightToes  -1.27222e-014 -6.36111e-015 6.36111e-015
Spine  -25.4043 -14.0612 -10.2576
Spine1  8.09237 -9.34494 22.0917
HEad  -1.30721 0.197989 -25.0098
LeftShoulder1  6.36111e-015 -1.33558e-015 6.49777e-015
LeftArm  30.0852 2.43403 6.76096
LeftForeArm  6.31942 -12.9711 -7.40617
LeftHand  -0.880178 0.270742 -11.6803
RightShoulder  -4.77083e-015 -6.36111e-015 -3.18055e-015
RightArm  66.8227 -24.2606 -32.8981
RightForeArm  -22.0372 -18.4958 -5.54228
RightHand  0.901723 1.44506 -9.71036
LeftUpLeg  -0.4913 52.3159 -3.21054
LeftLeg  -15.0207 -0.402147 -2.08841
LeftFoot  4.43823 -0.609577 1.80913
LeftToes  1.27222e-014 -5.20697e-012 1.80337e-011
288
root  -19.4993 36.2615 21.67 -176.231 22.7676 164.905
RightUpLeg  0.352296 -8.06419 3.8363
RightLeg  -40.5723 -22.2337 3.03711
RightFoot  31.3951 3.57968 -15.9326
RightToes  -1.27222e-014 -6.36111e-015 6.36111e-015
Spine  -21.8645 -14.9815 -11.8889
Spine1  11.5274 -7.94949 17.0965
HEad  -4.3228 -5.98082 -22.3011
LeftShoulder1  6.36111e-015 -1.33558e-015 6.49777e-015
LeftArm  29.9232 7.23755 0.630129
LeftForeArm  9.43105 -12.7543 -9.25859
LeftHand  -0.65357 0.976141 -11.3337
RightShoulder  -4.77083e-015 -6.36111e-015 -3.18055e-015
RightArm  56.6891 -28.3127 -17.6946
RightForeArm  -23.0395 -12.5601 -8.19998
RightHand  0.791591 1.72817 -9.40451
LeftUpLeg  -2.27554 47.4073 -8.00477
LeftLeg  -9.90003 1.2782 -1.44071
LeftFoot  2.7685 -1.14151 3.57058
LeftToes  1.27222e-014 -5.20697e-012 1.80337e-011
289
root  -18.0177 35.8475 21.2421 -175.566 16.3254 164.609
RightUpLeg  -4.85236 -10.7951 1.84993
RightLeg  -29.2135 -25.1953 2.00302
RightFoot  25.7445 3.21004 -14.4898
RightToes  -1.27222e-014 -6.36111e-015 6.36111e-015
Spine  -19.6908 -14.4682 -12.233
Spine1  12.0772 -6.64832 13.6529
HEad  -7.02981 -13.419 -18.0352
LeftShoulder1  6.36111e-015 -1.33558e-015 6.49777e-015
LeftArm  30.2706 14.1145 -2.16154
LeftForeArm  11.0084 -13.1844 -8.95387
LeftHand  -0.309452 1.99268 -10.7354
RightShoulder  -4.77083e-015 -6.36111e-015 -3.18055e-015
RightArm  46.5697 -25.0072 -5.31733
RightForeArm  -24.644 -1.84806 -14.2096
RightHand  0.747361 1.59822 -8.74838
LeftUpLeg  -2.44275 43.0346 -8.76538
LeftLeg  -3.52036 0.325992 -0.511428
LeftFoot  0.124226 -0.804378 2.77124
LeftToes  1.27222e-014 -5.20697e-012 1.80337e-011
